<svg width="152" height="60" viewBox="0 0 152 60" fill="none" xmlns="http://www.w3.org/2000/svg">
<g clip-path="url(#clip0_756_30594)">
<path d="M52.2644 36.3051H45.1488V0H52.2644V36.3051Z" fill="#231F20"/>
<path d="M74.2342 9.71252C77.1947 9.71252 79.532 10.8552 81.3498 13.1405C83.1677 15.4258 84.0506 18.8018 84.0506 23.2166C84.0506 27.6314 83.6351 28.6701 82.7522 30.6958C81.9212 32.7214 80.7266 34.2276 79.2203 35.2664C77.7141 36.3051 76.0001 36.8245 74.0265 36.8245C72.0528 36.8245 71.6892 36.6687 70.8063 36.3571C69.9233 36.0454 69.1442 35.6299 68.469 35.1105C67.7938 34.5912 67.2745 34.0718 66.807 33.5004H66.4434C66.5473 34.1237 66.6512 34.747 66.7031 35.4222C66.7551 36.0974 66.807 36.7206 66.807 37.3439V47.8875H59.6914V10.2319H65.4566L66.4434 13.6079H66.7551C67.2225 12.9327 67.7938 12.2575 68.469 11.6862C69.1442 11.1149 69.9233 10.6474 70.9102 10.2838C71.8451 9.92028 72.9358 9.76446 74.1823 9.76446L74.2342 9.71252ZM71.9489 15.4258C70.7024 15.4258 69.7156 15.6855 68.9884 16.2049C68.2613 16.7242 67.7419 17.5033 67.3783 18.4902C67.0148 19.477 66.8589 20.8274 66.807 22.3856V23.1646C66.807 24.8267 66.9628 26.281 67.2744 27.4236C67.5861 28.5663 68.1055 29.5012 68.8846 30.0725C69.6636 30.6958 70.7024 31.0074 72.0009 31.0074C73.2993 31.0074 73.9745 30.6958 74.7017 30.0725C75.3769 29.4492 75.9482 28.5663 76.2598 27.4236C76.6234 26.229 76.7792 24.8267 76.7792 23.1127C76.7792 20.5677 76.3637 18.646 75.5846 17.3475C74.8056 16.049 73.559 15.4258 71.897 15.4258H71.9489Z" fill="#231F20"/>
<path d="M97.0875 0V7.37529C97.0875 8.67376 97.0875 9.92029 96.9836 11.0629C96.8797 12.2056 96.8278 13.0366 96.7758 13.556H97.1394C97.7107 12.673 98.3859 11.9459 99.1131 11.3746C99.8402 10.8032 100.723 10.3877 101.658 10.128C102.593 9.86835 103.58 9.71253 104.671 9.71253C106.54 9.71253 108.202 10.0242 109.605 10.6994C111.007 11.3746 112.098 12.4133 112.877 13.8157C113.656 15.218 114.019 17.0359 114.019 19.2693V36.3051H106.904V21.0871C106.904 19.2173 106.54 17.815 105.865 16.8801C105.19 15.9452 104.099 15.4777 102.697 15.4777C101.294 15.4777 100.152 15.7894 99.3208 16.4646C98.4898 17.1398 97.9185 18.0747 97.5549 19.3731C97.1913 20.6716 97.0355 22.2298 97.0355 24.0996V36.3571H89.9199V0H97.0355H97.0875Z" fill="#231F20"/>
<path d="M132.094 9.71252C135.574 9.71252 138.275 10.4916 140.145 11.9978C142.014 13.504 142.949 15.8413 142.949 18.9576V36.3571H137.963L136.561 32.8252H136.353C135.626 33.7601 134.847 34.5392 134.068 35.1105C133.289 35.6819 132.406 36.1493 131.367 36.409C130.38 36.6687 129.134 36.8245 127.679 36.8245C126.225 36.8245 124.771 36.5129 123.524 35.9416C122.278 35.3702 121.343 34.4353 120.668 33.2407C119.992 31.9942 119.629 30.488 119.629 28.5663C119.629 25.8135 120.616 23.736 122.537 22.4375C124.459 21.139 127.42 20.4119 131.315 20.2561L135.834 20.1003V18.9576C135.834 17.6072 135.47 16.5684 134.743 15.9452C134.016 15.3219 133.029 15.0103 131.73 15.0103C130.432 15.0103 129.237 15.1661 128.043 15.5297C126.848 15.8932 125.602 16.3607 124.407 16.8801L122.07 12.0498C123.472 11.3226 125.03 10.7513 126.744 10.3358C128.458 9.92028 130.224 9.71252 132.094 9.71252ZM135.886 24.2554L133.133 24.3592C130.848 24.4112 129.237 24.8267 128.354 25.6058C127.472 26.3848 127.004 27.3717 127.004 28.6182C127.004 29.8647 127.316 30.488 127.939 30.9554C128.562 31.4229 129.393 31.6306 130.432 31.6306C131.938 31.6306 133.237 31.1632 134.275 30.2802C135.314 29.3973 135.834 28.0988 135.834 26.4368V24.3073L135.886 24.2554Z" fill="#231F20"/>
<path d="M38.8122 36.3051L36.3192 28.2027H23.8539L21.3608 36.3051H38.7603H38.8122ZM34.6052 22.1258L32.1121 14.1792C31.9563 13.6598 31.7486 12.9846 31.4889 12.1536C31.2292 11.3226 30.9695 10.4916 30.7098 9.60861C30.4501 8.72565 30.2424 7.99851 30.0865 7.37524C29.9307 7.99851 29.723 8.77759 29.4633 9.76442C29.2036 10.6993 28.9439 11.5823 28.6842 12.4133C28.4245 13.2443 28.2687 13.8676 28.1648 14.2312L25.7237 22.1778H34.6052V22.1258Z" fill="#231F20"/>
<path d="M147.988 15.3219C147.468 15.3219 147.053 15.218 146.637 15.0622C146.222 14.9064 145.858 14.6467 145.546 14.335C145.235 14.0234 144.975 13.6598 144.819 13.2443C144.663 12.8288 144.56 12.3614 144.56 11.8939C144.56 11.4265 144.663 10.959 144.819 10.5435C144.975 10.128 145.235 9.76444 145.546 9.45281C145.858 9.14118 146.222 8.88148 146.637 8.72567C147.053 8.56985 147.52 8.46597 147.988 8.46597C148.455 8.46597 148.922 8.56985 149.338 8.72567C149.753 8.88148 150.117 9.14118 150.429 9.45281C150.74 9.76444 151 10.128 151.156 10.5435C151.312 10.959 151.415 11.4265 151.415 11.8939C151.415 12.3614 151.312 12.8288 151.156 13.2443C151 13.6598 150.74 14.0234 150.429 14.335C150.117 14.6467 149.753 14.8544 149.338 15.0622C148.922 15.218 148.455 15.3219 147.988 15.3219ZM147.988 14.6986C148.351 14.6986 148.715 14.6467 149.078 14.4909C149.39 14.335 149.701 14.1792 149.961 13.9195C150.221 13.6598 150.429 13.3482 150.533 13.0366C150.688 12.673 150.74 12.3094 150.74 11.8939C150.74 11.4784 150.688 11.1148 150.533 10.8032C150.377 10.4396 150.221 10.18 149.961 9.92026C149.701 9.66056 149.442 9.45281 149.078 9.29699C148.715 9.14118 148.403 9.08924 147.988 9.08924C147.572 9.08924 147.208 9.14118 146.897 9.29699C146.533 9.45281 146.274 9.60862 146.014 9.86832C145.754 10.128 145.546 10.4396 145.443 10.7513C145.287 11.1148 145.235 11.4784 145.235 11.8939C145.235 12.3094 145.287 12.673 145.443 13.0366C145.598 13.4001 145.754 13.6598 146.014 13.9195C146.274 14.1792 146.533 14.387 146.897 14.4909C147.26 14.6467 147.624 14.6986 148.039 14.6986H147.988ZM146.689 13.9195V9.81638H147.936C148.455 9.81638 148.819 9.92026 149.026 10.128C149.234 10.3358 149.39 10.6474 149.39 11.0629C149.39 11.4784 149.338 11.5823 149.182 11.7381C149.026 11.8939 148.87 12.0497 148.663 12.1017L149.753 13.9195H148.922L148.039 12.3614H147.468V13.9195H146.689ZM147.468 11.7381H147.936C148.195 11.7381 148.351 11.6862 148.507 11.5304C148.663 11.3745 148.715 11.2707 148.715 11.0629C148.715 10.8552 148.663 10.6993 148.559 10.5955C148.455 10.4916 148.247 10.4396 147.988 10.4396H147.52V11.7381H147.468Z" fill="#231F20"/>
<path d="M13.7778 35.8377L25.6717 2.07755H13.7778V12.3095H0.585327V23.736H13.7778V35.8377Z" fill="#2862A9"/>
<path d="M139.538 54.2132C138.359 54.2132 137.353 54 136.522 53.5737C135.69 53.1403 135.058 52.4723 134.625 51.5699C134.191 50.6675 133.974 49.5129 133.974 48.106C133.974 46.6494 134.22 45.4628 134.71 44.5462C135.207 43.6225 135.893 42.9439 136.767 42.5105C137.648 42.077 138.668 41.8603 139.826 41.8603C140.65 41.8603 141.361 41.942 141.957 42.1055C142.561 42.2618 143.087 42.4501 143.535 42.6703L142.576 45.1857C142.064 44.9796 141.588 44.8126 141.147 44.6847C140.707 44.5497 140.266 44.4822 139.826 44.4822C139.257 44.4822 138.785 44.6172 138.408 44.8872C138.032 45.1502 137.751 45.5481 137.566 46.081C137.382 46.6139 137.289 47.2818 137.289 48.0847C137.289 48.8734 137.389 49.5271 137.588 50.0458C137.787 50.5645 138.074 50.9518 138.451 51.2076C138.828 51.4563 139.286 51.5806 139.826 51.5806C140.501 51.5806 141.101 51.4918 141.627 51.3141C142.153 51.1294 142.664 50.8736 143.162 50.5468V53.3285C142.664 53.6412 142.142 53.865 141.595 54C141.055 54.1421 140.369 54.2132 139.538 54.2132Z" fill="#2862A9"/>
<path d="M127.121 41.8603C128.393 41.8603 129.417 42.2085 130.191 42.9048C130.966 43.5941 131.353 44.7025 131.353 46.2302V54H128.102V47.0402C128.102 46.1876 127.946 45.5445 127.633 45.1111C127.328 44.6776 126.844 44.4609 126.184 44.4609C125.189 44.4609 124.51 44.7984 124.148 45.4735C123.785 46.1485 123.604 47.1219 123.604 48.3938V54H120.354V42.0841H122.837L123.274 43.6083H123.455C123.711 43.1961 124.027 42.8622 124.404 42.6064C124.787 42.3506 125.21 42.1623 125.672 42.0415C126.141 41.9207 126.624 41.8603 127.121 41.8603Z" fill="#2862A9"/>
<path d="M106.221 42.0841H109.781L112.029 48.7881C112.1 49.0013 112.161 49.218 112.211 49.4383C112.26 49.6586 112.303 49.8859 112.339 50.1204C112.374 50.3549 112.402 50.6 112.424 50.8558H112.488C112.53 50.4721 112.587 50.1133 112.658 49.7794C112.736 49.4454 112.832 49.115 112.946 48.7881L115.152 42.0841H118.638L113.596 55.5241C113.291 56.3484 112.893 57.034 112.402 57.5812C111.912 58.1354 111.347 58.5511 110.708 58.8282C110.075 59.1053 109.379 59.2438 108.619 59.2438C108.249 59.2438 107.93 59.2225 107.66 59.1799C107.39 59.1444 107.159 59.1053 106.967 59.0627V56.4834C107.116 56.5189 107.304 56.5509 107.532 56.5793C107.759 56.6077 107.997 56.6219 108.246 56.6219C108.701 56.6219 109.091 56.526 109.418 56.3342C109.745 56.1423 110.019 55.883 110.239 55.5561C110.459 55.2364 110.633 54.8846 110.761 54.5009L110.953 53.9147L106.221 42.0841Z" fill="#2862A9"/>
<path d="M105.357 49.6728C105.357 50.5965 105.134 51.3994 104.686 52.0815C104.238 52.7636 103.585 53.2894 102.725 53.6589C101.872 54.0284 100.835 54.2132 99.6126 54.2132C99.0726 54.2132 98.5432 54.1776 98.0245 54.1066C97.5129 54.0355 97.0191 53.9325 96.543 53.7975C96.074 53.6554 95.6264 53.4813 95.2001 53.2752V50.2057C95.939 50.5325 96.7064 50.8274 97.5022 51.0903C98.2981 51.3532 99.0868 51.4847 99.8684 51.4847C100.408 51.4847 100.842 51.4136 101.169 51.2715C101.503 51.1294 101.744 50.934 101.893 50.6853C102.043 50.4366 102.117 50.1524 102.117 49.8326C102.117 49.4418 101.986 49.1079 101.723 48.8308C101.46 48.5537 101.098 48.2943 100.636 48.0527C100.181 47.8111 99.6659 47.5518 99.0903 47.2747C98.7279 47.1041 98.3336 46.8981 97.9073 46.6565C97.4809 46.4078 97.0759 46.1058 96.6922 45.7505C96.3085 45.3953 95.9923 44.9654 95.7436 44.4609C95.5021 43.9493 95.3813 43.3382 95.3813 42.6277C95.3813 41.6969 95.5944 40.9011 96.0208 40.2403C96.4471 39.5794 97.0546 39.075 97.8433 38.7268C98.6391 38.3715 99.577 38.1939 100.657 38.1939C101.467 38.1939 102.238 38.2898 102.97 38.4816C103.709 38.6664 104.48 38.9364 105.283 39.2917L104.217 41.8603C103.499 41.569 102.856 41.3452 102.288 41.1888C101.719 41.0254 101.14 40.9437 100.55 40.9437C100.138 40.9437 99.7867 41.0112 99.4953 41.1462C99.204 41.2741 98.9837 41.4588 98.8345 41.7004C98.6853 41.9349 98.6107 42.2085 98.6107 42.5211C98.6107 42.8906 98.7173 43.2032 98.9304 43.459C99.1507 43.7077 99.4776 43.9493 99.911 44.1838C100.352 44.4183 100.899 44.6918 101.552 45.0045C102.348 45.3811 103.027 45.7754 103.588 46.1875C104.157 46.5925 104.594 47.0722 104.899 47.6264C105.205 48.1735 105.357 48.8556 105.357 49.6728Z" fill="#2862A9"/>
</g>
<defs>
<clipPath id="clip0_756_30594">
<rect width="151.2" height="60" fill="white" transform="translate(0.400024)"/>
</clipPath>
</defs>
</svg>
