<svg width="126" height="50" viewBox="0 0 126 50" fill="none" xmlns="http://www.w3.org/2000/svg">
<g clip-path="url(#clip0_92_20449)">
<path d="M43.2202 30.2543H37.2905V0H43.2202V30.2543Z" fill="white"/>
<path d="M61.5286 8.09375C63.9957 8.09375 65.9434 9.04596 67.4582 10.9504C68.9731 12.8548 69.7089 15.6681 69.7089 19.3471C69.7089 23.0261 69.3627 23.8918 68.6269 25.5798C67.9343 27.2678 66.9388 28.523 65.6837 29.3886C64.4285 30.2543 63.0002 30.6871 61.3554 30.6871C59.7107 30.6871 59.4077 30.5572 58.6719 30.2975C57.9361 30.0378 57.2869 29.6916 56.7242 29.2588C56.1616 28.8259 55.7288 28.3931 55.3392 27.917H55.0362C55.1228 28.4364 55.2094 28.9558 55.2526 29.5185C55.2959 30.0811 55.3392 30.6005 55.3392 31.1199V39.9062H49.4095V8.52657H54.2139L55.0362 11.3399H55.2959C55.6855 10.7772 56.1616 10.2146 56.7242 9.73847C57.2869 9.26237 57.9361 8.87283 58.7585 8.56985C59.5376 8.26688 60.4465 8.13703 61.4853 8.13703L61.5286 8.09375ZM59.6241 12.8548C58.5854 12.8548 57.763 13.0712 57.1571 13.504C56.5511 13.9369 56.1183 14.5861 55.8153 15.4084C55.5123 16.2308 55.3825 17.3561 55.3392 18.6546V19.3038C55.3392 20.6889 55.4691 21.9008 55.7287 22.853C55.9884 23.8052 56.4213 24.5843 57.0705 25.0604C57.7197 25.5798 58.5854 25.8395 59.6674 25.8395C60.7495 25.8395 61.3122 25.5798 61.9181 25.0604C62.4808 24.541 62.9569 23.8052 63.2166 22.853C63.5196 21.8575 63.6494 20.6889 63.6494 19.2606C63.6494 17.1397 63.3031 15.5383 62.6539 14.4562C62.0047 13.3742 60.9659 12.8548 59.5809 12.8548H59.6241Z" fill="white"/>
<path d="M80.5727 0V6.14608C80.5727 7.22813 80.5727 8.26691 80.4861 9.21912C80.3996 10.1713 80.3563 10.8638 80.313 11.2967H80.616C81.0921 10.5609 81.6547 9.95491 82.2607 9.47881C82.8666 9.00271 83.6024 8.65645 84.3815 8.44004C85.1606 8.22363 85.983 8.09378 86.8919 8.09378C88.45 8.09378 89.8351 8.35347 91.0037 8.91614C92.1723 9.47881 93.0812 10.3445 93.7305 11.5131C94.3797 12.6817 94.6827 14.1966 94.6827 16.0577V30.2543H88.753V17.5726C88.753 16.0144 88.45 14.8458 87.8874 14.0667C87.3247 13.2876 86.4158 12.8981 85.2472 12.8981C84.0785 12.8981 83.1263 13.1578 82.4338 13.7205C81.7413 14.2831 81.2652 15.0622 80.9622 16.1443C80.6592 17.2263 80.5294 18.5248 80.5294 20.083V30.2976H74.5997V0H80.5294H80.5727Z" fill="white"/>
<path d="M109.745 8.09375C112.645 8.09375 114.896 8.74298 116.454 9.99817C118.012 11.2534 118.791 13.2011 118.791 15.798V30.2975H114.636L113.467 27.3543H113.294C112.688 28.1334 112.039 28.7827 111.39 29.2588C110.74 29.7349 110.005 30.1244 109.139 30.3408C108.317 30.5572 107.278 30.6871 106.066 30.6871C104.854 30.6871 103.642 30.4274 102.603 29.9513C101.565 29.4752 100.785 28.6961 100.223 27.7006C99.6602 26.6618 99.3572 25.4066 99.3572 23.8052C99.3572 21.5112 100.18 19.78 101.781 18.6979C103.382 17.6158 105.85 17.0099 109.096 16.88L112.861 16.7502V15.798C112.861 14.6726 112.558 13.807 111.952 13.2876C111.346 12.7682 110.524 12.5085 109.442 12.5085C108.36 12.5085 107.364 12.6384 106.369 12.9414C105.373 13.2443 104.335 13.6339 103.339 14.0667L101.391 10.0415C102.56 9.4355 103.859 8.95939 105.287 8.61314C106.715 8.26688 108.187 8.09375 109.745 8.09375ZM112.905 20.2128L110.611 20.2993C108.706 20.3426 107.364 20.6889 106.629 21.3381C105.893 21.9873 105.503 22.8097 105.503 23.8485C105.503 24.8873 105.763 25.4066 106.282 25.7962C106.802 26.1857 107.494 26.3589 108.36 26.3589C109.615 26.3589 110.697 25.9693 111.563 25.2335C112.428 24.4977 112.861 23.4157 112.861 22.0306V20.2561L112.905 20.2128Z" fill="white"/>
<path d="M32.01 30.2542L29.9324 23.5022H19.5447L17.4672 30.2542H31.9667H32.01ZM28.5041 18.4381L26.4266 11.816C26.2967 11.3831 26.1236 10.8205 25.9072 10.128C25.6908 9.43545 25.4744 8.74293 25.258 8.00713C25.0416 7.27133 24.8684 6.66538 24.7386 6.146C24.6087 6.66538 24.4356 7.31462 24.2192 8.13698C24.0028 8.91606 23.7864 9.65186 23.57 10.3444C23.3535 11.0369 23.2237 11.5563 23.1371 11.8593L21.1029 18.4814H28.5041V18.4381Z" fill="white"/>
<path d="M122.989 12.7682C122.556 12.7682 122.21 12.6816 121.864 12.5518C121.518 12.4219 121.215 12.2055 120.955 11.9458C120.695 11.6861 120.479 11.3832 120.349 11.0369C120.219 10.6906 120.133 10.3011 120.133 9.91156C120.133 9.52202 120.219 9.13248 120.349 8.78622C120.479 8.43996 120.695 8.13699 120.955 7.87729C121.215 7.6176 121.518 7.40119 121.864 7.27134C122.21 7.1415 122.6 7.05493 122.989 7.05493C123.379 7.05493 123.768 7.1415 124.115 7.27134C124.461 7.40119 124.764 7.6176 125.024 7.87729C125.283 8.13699 125.5 8.43996 125.63 8.78622C125.759 9.13248 125.846 9.52202 125.846 9.91156C125.846 10.3011 125.759 10.6906 125.63 11.0369C125.5 11.3832 125.283 11.6861 125.024 11.9458C124.764 12.2055 124.461 12.3786 124.115 12.5518C123.768 12.6816 123.379 12.7682 122.989 12.7682ZM122.989 12.2488C123.292 12.2488 123.595 12.2055 123.898 12.0757C124.158 11.9458 124.418 11.816 124.634 11.5996C124.85 11.3832 125.024 11.1235 125.11 10.8638C125.24 10.5608 125.283 10.2578 125.283 9.91156C125.283 9.5653 125.24 9.26233 125.11 9.00263C124.98 8.69966 124.85 8.48325 124.634 8.26683C124.418 8.05042 124.201 7.87729 123.898 7.74745C123.595 7.6176 123.336 7.57432 122.989 7.57432C122.643 7.57432 122.34 7.6176 122.08 7.74745C121.777 7.87729 121.561 8.00714 121.345 8.22355C121.128 8.43996 120.955 8.69966 120.868 8.95935C120.739 9.26233 120.695 9.5653 120.695 9.91156C120.695 10.2578 120.739 10.5608 120.868 10.8638C120.998 11.1667 121.128 11.3832 121.345 11.5996C121.561 11.816 121.777 11.9891 122.08 12.0757C122.383 12.2055 122.686 12.2488 123.033 12.2488H122.989ZM121.907 11.5996V8.18027H122.946C123.379 8.18027 123.682 8.26683 123.855 8.43996C124.028 8.61309 124.158 8.87279 124.158 9.21904C124.158 9.5653 124.115 9.65187 123.985 9.78171C123.855 9.91156 123.725 10.0414 123.552 10.0847L124.461 11.5996H123.768L123.033 10.3011H122.556V11.5996H121.907ZM122.556 9.78171H122.946C123.162 9.78171 123.292 9.73843 123.422 9.60858C123.552 9.47874 123.595 9.39217 123.595 9.21904C123.595 9.04591 123.552 8.91607 123.465 8.8295C123.379 8.74294 123.206 8.69966 122.989 8.69966H122.6V9.78171H122.556Z" fill="white"/>
<path d="M11.148 29.8647L21.0596 1.7312H11.148V10.2578H0.154297V19.7799H11.148V29.8647Z" fill="white"/>
<path d="M115.948 45.1776C114.966 45.1776 114.128 45 113.435 44.6447C112.742 44.2835 112.215 43.7269 111.854 42.9749C111.493 42.2229 111.312 41.2607 111.312 40.0883C111.312 38.8744 111.516 37.8856 111.925 37.1218C112.339 36.352 112.911 35.7865 113.639 35.4253C114.373 35.0641 115.223 34.8835 116.188 34.8835C116.875 34.8835 117.467 34.9516 117.965 35.0878C118.468 35.2181 118.906 35.375 119.279 35.5586L118.48 37.6547C118.053 37.483 117.657 37.3438 117.29 37.2372C116.922 37.1247 116.555 37.0685 116.188 37.0685C115.715 37.0685 115.321 37.181 115.007 37.406C114.693 37.6251 114.459 37.9567 114.305 38.4008C114.151 38.8448 114.074 39.4014 114.074 40.0705C114.074 40.7278 114.157 41.2725 114.323 41.7048C114.489 42.137 114.729 42.4598 115.043 42.6729C115.356 42.8802 115.738 42.9838 116.188 42.9838C116.751 42.9838 117.251 42.9098 117.689 42.7617C118.127 42.6078 118.554 42.3946 118.968 42.1222V44.4404C118.554 44.7009 118.119 44.8875 117.663 45C117.213 45.1184 116.641 45.1776 115.948 45.1776Z" fill="white"/>
<path d="M105.601 34.8835C106.661 34.8835 107.514 35.1737 108.159 35.754C108.804 36.3283 109.127 37.252 109.127 38.5251V45H106.418V39.2001C106.418 38.4896 106.288 37.9537 106.027 37.5925C105.773 37.2313 105.37 37.0507 104.819 37.0507C103.99 37.0507 103.425 37.332 103.123 37.8945C102.821 38.457 102.67 39.2682 102.67 40.3281V45H99.9611V35.0701H102.031L102.395 36.3402H102.546C102.759 35.9967 103.022 35.7184 103.336 35.5053C103.656 35.2921 104.008 35.1352 104.393 35.0345C104.784 34.9339 105.187 34.8835 105.601 34.8835Z" fill="white"/>
<path d="M88.1838 35.0701H91.1504L93.0244 40.6567C93.0837 40.8344 93.134 41.015 93.1754 41.1985C93.2169 41.3821 93.2524 41.5716 93.282 41.767C93.3116 41.9624 93.3353 42.1667 93.3531 42.3798H93.4064C93.4419 42.0601 93.4893 41.7611 93.5485 41.4828C93.6136 41.2045 93.6935 40.9291 93.7883 40.6567L95.6268 35.0701H98.5312L94.3301 46.2701C94.0755 46.9569 93.7439 47.5283 93.3353 47.9843C92.9267 48.4461 92.456 48.7925 91.9231 49.0234C91.3961 49.2544 90.8158 49.3698 90.1823 49.3698C89.8743 49.3698 89.6079 49.3521 89.3829 49.3165C89.1579 49.2869 88.9654 49.2544 88.8056 49.2188V47.0694C88.9299 47.099 89.0868 47.1257 89.2763 47.1494C89.4658 47.173 89.6641 47.1849 89.8714 47.1849C90.2503 47.1849 90.576 47.105 90.8484 46.9451C91.1208 46.7852 91.3487 46.5691 91.5323 46.2967C91.7158 46.0303 91.8609 45.7372 91.9675 45.4174L92.1274 44.9289L88.1838 35.0701Z" fill="white"/>
<path d="M87.4644 41.3939C87.4644 42.1636 87.2779 42.8327 86.9048 43.4012C86.5318 43.9696 85.987 44.4078 85.2706 44.7157C84.56 45.0236 83.6955 45.1775 82.6771 45.1775C82.2271 45.1775 81.7859 45.1479 81.3537 45.0887C80.9274 45.0295 80.5158 44.9436 80.1191 44.8311C79.7283 44.7127 79.3553 44.5676 79 44.3959V41.838C79.6158 42.1103 80.2553 42.3561 80.9185 42.5751C81.5817 42.7942 82.2389 42.9038 82.8902 42.9038C83.3403 42.9038 83.7015 42.8446 83.9738 42.7261C84.2521 42.6077 84.4534 42.4449 84.5778 42.2376C84.7021 42.0304 84.7643 41.7935 84.7643 41.5271C84.7643 41.2014 84.6548 40.9231 84.4357 40.6922C84.2166 40.4613 83.9146 40.2451 83.5297 40.0438C83.1508 39.8425 82.7215 39.6264 82.2419 39.3954C81.9399 39.2533 81.6113 39.0816 81.256 38.8803C80.9007 38.6731 80.5632 38.4214 80.2435 38.1253C79.9237 37.8293 79.6602 37.4711 79.453 37.0506C79.2517 36.6243 79.151 36.1151 79.151 35.523C79.151 34.7473 79.3286 34.0841 79.6839 33.5334C80.0392 32.9828 80.5454 32.5624 81.2027 32.2722C81.8659 31.9762 82.6475 31.8281 83.5475 31.8281C84.2225 31.8281 84.865 31.9081 85.4749 32.0679C86.0907 32.2219 86.7331 32.4469 87.4022 32.743L86.514 34.8835C85.916 34.6407 85.3801 34.4542 84.9064 34.3239C84.4327 34.1877 83.9501 34.1196 83.4587 34.1196C83.1153 34.1196 82.8222 34.1759 82.5794 34.2884C82.3366 34.395 82.1531 34.5489 82.0287 34.7502C81.9044 34.9456 81.8422 35.1736 81.8422 35.4342C81.8422 35.7421 81.931 36.0026 82.1086 36.2158C82.2922 36.423 82.5646 36.6243 82.9258 36.8197C83.2929 37.0151 83.7488 37.2431 84.2936 37.5036C84.9568 37.8174 85.5222 38.1461 85.99 38.4895C86.4637 38.827 86.8279 39.2267 87.0825 39.6885C87.3371 40.1445 87.4644 40.7129 87.4644 41.3939Z" fill="white"/>
</g>
<defs>
<clipPath id="clip0_92_20449">
<rect width="126" height="50" fill="white"/>
</clipPath>
</defs>
</svg>
