<svg width="72" height="72" viewBox="0 0 72 72" fill="none" xmlns="http://www.w3.org/2000/svg">
<path opacity="0.4" fill-rule="evenodd" clip-rule="evenodd" d="M44.7211 32.0777L45.5112 33.1535C46.3926 34.3537 46.8333 34.9538 47.1526 35.6112C47.4753 36.2754 47.7059 36.9821 47.838 37.7111C47.9688 38.4328 47.9688 39.1829 47.9688 40.6831V44.5C47.9688 50.1569 47.9688 52.9853 46.248 54.7426C44.5273 56.5 41.7578 56.5 36.2188 56.5C30.6797 56.5 27.9102 56.5 26.1895 54.7426C24.4688 52.9853 24.4688 50.1569 24.4688 44.5V40.6831C24.4688 39.1829 24.4688 38.4328 24.5995 37.7111C24.7316 36.9821 24.9622 36.2754 25.2849 35.6112C25.6042 34.9538 26.0449 34.3537 26.9263 33.1535L27.7164 32.0777C28.1497 31.4876 28.3664 31.1926 28.5358 30.897C29.4195 29.3546 29.5841 27.4903 28.9848 25.8114C28.7617 25.1864 29.1518 24.5 29.8032 24.5H42.6343C43.2857 24.5 43.6758 25.1864 43.4527 25.8114C42.8534 27.4903 43.018 29.3546 43.9017 30.897C44.0711 31.1926 44.2878 31.4876 44.7211 32.0777ZM36.2188 48.5C33.7708 48.5 31.3229 47.3137 31.3229 44C31.3229 40.6863 36.2188 36.5 36.2188 36.5C36.2188 36.5 41.1146 40.6863 41.1146 44C41.1146 47.3137 38.6667 48.5 36.2188 48.5Z" fill="#9CA3AF"/>
<path fill-rule="evenodd" clip-rule="evenodd" d="M37.1617 35.3499C36.6161 34.8834 35.8215 34.8834 35.2759 35.3499L35.2065 35.4102C35.1657 35.4461 35.1078 35.4974 35.0353 35.5629C34.8904 35.6938 34.6866 35.8818 34.4435 36.1172C33.9591 36.586 33.3092 37.2513 32.6549 38.0321C32.0047 38.8081 31.3237 39.7296 30.7988 40.7113C30.2832 41.6758 29.8542 42.8161 29.8542 44C29.8542 46.0839 30.6495 47.6689 31.9656 48.688C33.2192 49.6587 34.7926 50 36.2188 50C37.645 50 39.2183 49.6587 40.472 48.688C41.7881 47.6689 42.5834 46.0839 42.5834 44C42.5834 42.8161 42.1544 41.6758 41.6388 40.7113C41.1139 39.7296 40.4329 38.8081 39.7827 38.0321C39.1284 37.2513 38.4785 36.586 37.9941 36.1172C37.751 35.8818 37.5472 35.6938 37.4023 35.5629C37.3298 35.4974 37.2719 35.4461 37.231 35.4102L37.1617 35.3499ZM36.2188 38.5356C36.6123 38.9278 37.083 39.4244 37.5508 39.9826C38.1245 40.6674 38.6675 41.4139 39.0606 42.1491C39.4629 42.9015 39.6459 43.5271 39.6459 44C39.6459 45.2299 39.2172 45.8949 38.6973 46.2974C38.1151 46.7482 37.2405 47 36.2188 47C35.1971 47 34.3225 46.7482 33.7403 46.2974C33.2204 45.8949 32.7917 45.2299 32.7917 44C32.7917 43.5271 32.9747 42.9015 33.377 42.1491C33.7701 41.4139 34.3131 40.6674 34.8868 39.9826C35.3546 39.4244 35.8253 38.9278 36.2188 38.5356Z" fill="#9CA3AF"/>
<path fill-rule="evenodd" clip-rule="evenodd" d="M30.3894 15H42.0482C42.8739 14.9999 43.6374 14.9998 44.2598 15.0872C44.95 15.1842 45.6799 15.4133 46.277 16.0375C46.8386 16.6244 47.1051 17.4706 47.2489 18.1374C47.4071 18.8714 47.4792 19.6997 47.4792 20.5C47.4792 21.3003 47.4071 22.1286 47.2489 22.8626C47.1051 23.5294 46.8386 24.3756 46.277 24.9626C45.8802 25.3774 45.4247 25.6177 44.9611 25.7607C44.9401 25.9537 44.8975 26.1436 44.8326 26.3252C44.3831 27.5844 44.5066 28.9826 45.1694 30.1394C45.2863 30.3434 45.4414 30.5585 45.8962 31.1777L46.7699 32.3674C47.5715 33.4587 48.0884 34.1624 48.4684 34.9446C48.8515 35.7333 49.1254 36.5725 49.2823 37.4382C49.4378 38.2968 49.4377 39.1764 49.4375 40.5407L49.4375 44.6098C49.4376 47.3449 49.4376 49.5496 49.2093 51.2835C48.9723 53.0837 48.4653 54.5995 47.2866 55.8033C46.1078 57.0071 44.6237 57.5249 42.861 57.767C41.1631 58.0001 39.0044 58 36.3262 58H36.1113C33.4331 58 31.2744 58.0001 29.5766 57.767C27.8139 57.5249 26.3297 57.0071 25.151 55.8033C23.9722 54.5995 23.4652 53.0837 23.2282 51.2835C22.9999 49.5496 23 47.3449 23 44.6098L23 40.5407C22.9998 39.1764 22.9997 38.2968 23.1553 37.4382C23.3121 36.5725 23.586 35.7333 23.9692 34.9446C24.3492 34.1623 24.866 33.4588 25.6677 32.3674L26.5414 31.1777C26.9961 30.5585 27.1512 30.3434 27.2682 30.1394C27.931 28.9826 28.0544 27.5844 27.6049 26.3252C27.5401 26.1436 27.4975 25.9537 27.4764 25.7607C27.0129 25.6177 26.5574 25.3774 26.1605 24.9626C25.599 24.3756 25.3325 23.5294 25.1887 22.8626C25.0305 22.1286 24.9584 21.3003 24.9584 20.5C24.9584 19.6997 25.0305 18.8714 25.1887 18.1374C25.3325 17.4706 25.599 16.6244 26.1605 16.0375C26.7577 15.4133 27.4876 15.1842 28.1778 15.0872C28.8002 14.9998 29.5637 14.9999 30.3894 15ZM41.8596 26H30.5779C31.0575 27.9057 30.7862 29.9394 29.8035 31.6546C29.591 32.0253 29.3269 32.3849 28.943 32.9074L28.1013 34.0535C27.1883 35.2969 26.8463 35.7721 26.6006 36.2779C26.3385 36.8175 26.1511 37.3917 26.0438 37.984C25.9432 38.5392 25.9375 39.1289 25.9375 40.6831V44.5C25.9375 47.3708 25.9406 49.3731 26.1395 50.8838C26.3327 52.3513 26.6861 53.1285 27.2281 53.682C27.7701 54.2355 28.531 54.5964 29.968 54.7937C31.4472 54.9968 33.4078 55 36.2188 55C39.0298 55 40.9903 54.9968 42.4695 54.7937C43.9065 54.5964 44.6675 54.2355 45.2095 53.682C45.7515 53.1285 46.1048 52.3513 46.298 50.8838C46.4969 49.3731 46.5 47.3708 46.5 44.5V40.6831C46.5 39.1289 46.4944 38.5392 46.3938 37.984C46.2865 37.3917 46.0991 36.8175 45.8369 36.2779C45.5912 35.7721 45.2493 35.2969 44.3362 34.0535L43.4945 32.9074C43.1107 32.3849 42.8465 32.0253 42.6341 31.6546C41.6513 29.9394 41.38 27.9057 41.8596 26ZM43.8594 22.9408C43.4759 22.9947 42.9443 22.9997 42.0603 23H30.3773C29.4933 22.9997 28.9617 22.9947 28.5782 22.9408C28.3971 22.9153 28.31 22.8859 28.2741 22.8704L28.2669 22.8672L28.2618 22.8568C28.2363 22.8057 28.1447 22.6221 28.0575 22.2175C27.9544 21.7395 27.8959 21.1337 27.8959 20.5C27.8959 19.8663 27.9544 19.2606 28.0575 18.7825C28.1447 18.3779 28.2363 18.1944 28.2618 18.1432L28.2669 18.1328L28.2741 18.1296C28.31 18.1142 28.3971 18.0847 28.5782 18.0592C28.976 18.0033 29.5333 18 30.4778 18H41.9598C42.9043 18 43.4616 18.0033 43.8594 18.0592C44.0404 18.0847 44.1275 18.1142 44.1635 18.1296L44.1707 18.1328L44.1758 18.1432C44.2013 18.1944 44.2929 18.3779 44.3801 18.7825C44.4832 19.2606 44.5417 19.8663 44.5417 20.5C44.5417 21.1337 44.4832 21.7395 44.3801 22.2175C44.2929 22.6221 44.2013 22.8057 44.1758 22.8568L44.1707 22.8672L44.1635 22.8704C44.1275 22.8859 44.0404 22.9153 43.8594 22.9408Z" fill="#9CA3AF"/>
</svg>
